# xmcd
#
# Track frame offsets:
#	150
#	16290
#	30864
#	48760
#
# Disc length: 838 seconds
#
# Revision: 1
# Processed by: cddbd v1.5.2PL0 Copyright (c) Steve Scherf et al.
# Submitted via: EasyCDDAExtractor 2010.6.0.0
#
DISCID=1d034404
DTITLE=NU'EST - Action
DYEAR=2012
DGENRE=K-Pop
TTITLE0=Not Over You
TTITLE1=Action
TTITLE2=Sandy
TTITLE3=생일 축하해요
EXTD=YEAR: 2005
EXTT0=
EXTT1=
EXTT2=
EXTT3=
PLAYORDER=
